<?xml version="1.0" encoding="utf-8" standalone="no"?>
<!DOCTYPE svg PUBLIC "-//W3C//DTD SVG 1.1//EN"
  "http://www.w3.org/Graphics/SVG/1.1/DTD/svg11.dtd">
<svg xmlns:xlink="http://www.w3.org/1999/xlink" width="1280.470341pt" height="378.317187pt" viewBox="0 0 1280.470341 378.317187" xmlns="http://www.w3.org/2000/svg" version="1.1">
 <metadata>
  <rdf:RDF xmlns:dc="http://purl.org/dc/elements/1.1/" xmlns:cc="http://creativecommons.org/ns#" xmlns:rdf="http://www.w3.org/1999/02/22-rdf-syntax-ns#">
   <cc:Work>
    <dc:type rdf:resource="http://purl.org/dc/dcmitype/StillImage"/>
    <dc:date>2026-04-21T12:41:59.067408</dc:date>
    <dc:format>image/svg+xml</dc:format>
    <dc:creator>
     <cc:Agent>
      <dc:title>Matplotlib v3.10.8, https://matplotlib.org/</dc:title>
     </cc:Agent>
    </dc:creator>
   </cc:Work>
  </rdf:RDF>
 </metadata>
 <defs>
  <style type="text/css">*{stroke-linejoin: round; stroke-linecap: butt}</style>
 </defs>
 <g id="figure_1">
  <g id="patch_1">
   <path d="M -0 378.317187 
L 1280.470341 378.317187 
L 1280.470341 0 
L -0 0 
z
" style="fill: #ffffff"/>
  </g>
  <g id="axes_1">
   <g id="patch_2">
    <path d="M 67.801875 298.457187 
L 453.736141 298.457187 
L 453.736141 26.877187 
L 67.801875 26.877187 
z
" style="fill: #ffffff"/>
   </g>
   <g id="matplotlib.axis_1">
    <g id="xtick_1">
     <g id="line2d_1">
      <path d="M 85.344342 298.457187 
L 85.344342 26.877187 
" clip-path="url(#pdad3734660)" style="fill: none; stroke: #cccccc; stroke-linecap: round"/>
     </g>
     <g id="text_1">
      <!-- 200 -->
      <g style="fill: #262626" transform="translate(71.983092 318.595) scale(0.14 -0.14)">
       <defs>
        <path id="DejaVuSans-32" d="M 1228 531 
L 3431 531 
L 3431 0 
L 469 0 
L 469 531 
Q 828 903 1448 1529 
Q 2069 2156 2228 2338 
Q 2531 2678 2651 2914 
Q 2772 3150 2772 3378 
Q 2772 3750 2511 3984 
Q 2250 4219 1831 4219 
Q 1534 4219 1204 4116 
Q 875 4013 500 3803 
L 500 4441 
Q 881 4594 1212 4672 
Q 1544 4750 1819 4750 
Q 2544 4750 2975 4387 
Q 3406 4025 3406 3419 
Q 3406 3131 3298 2873 
Q 3191 2616 2906 2266 
Q 2828 2175 2409 1742 
Q 1991 1309 1228 531 
z
" transform="scale(0.015625)"/>
        <path id="DejaVuSans-30" d="M 2034 4250 
Q 1547 4250 1301 3770 
Q 1056 3291 1056 2328 
Q 1056 1369 1301 889 
Q 1547 409 2034 409 
Q 2525 409 2770 889 
Q 3016 1369 3016 2328 
Q 3016 3291 2770 3770 
Q 2525 4250 2034 4250 
z
M 2034 4750 
Q 2819 4750 3233 4129 
Q 3647 3509 3647 2328 
Q 3647 1150 3233 529 
Q 2819 -91 2034 -91 
Q 1250 -91 836 529 
Q 422 1150 422 2328 
Q 422 3509 836 4129 
Q 1250 4750 2034 4750 
z
" transform="scale(0.015625)"/>
       </defs>
       <use xlink:href="#DejaVuSans-32"/>
       <use xlink:href="#DejaVuSans-30" transform="translate(63.623047 0)"/>
       <use xlink:href="#DejaVuSans-30" transform="translate(127.246094 0)"/>
      </g>
     </g>
    </g>
    <g id="xtick_2">
     <g id="line2d_2">
      <path d="M 229.686595 298.457187 
L 229.686595 26.877187 
" clip-path="url(#pdad3734660)" style="fill: none; stroke: #cccccc; stroke-linecap: round"/>
     </g>
     <g id="text_2">
      <!-- 1000 -->
      <g style="fill: #262626" transform="translate(211.871595 318.595) scale(0.14 -0.14)">
       <defs>
        <path id="DejaVuSans-31" d="M 794 531 
L 1825 531 
L 1825 4091 
L 703 3866 
L 703 4441 
L 1819 4666 
L 2450 4666 
L 2450 531 
L 3481 531 
L 3481 0 
L 794 0 
L 794 531 
z
" transform="scale(0.015625)"/>
       </defs>
       <use xlink:href="#DejaVuSans-31"/>
       <use xlink:href="#DejaVuSans-30" transform="translate(63.623047 0)"/>
       <use xlink:href="#DejaVuSans-30" transform="translate(127.246094 0)"/>
       <use xlink:href="#DejaVuSans-30" transform="translate(190.869141 0)"/>
      </g>
     </g>
    </g>
    <g id="xtick_3">
     <g id="line2d_3">
      <path d="M 374.028849 298.457187 
L 374.028849 26.877187 
" clip-path="url(#pdad3734660)" style="fill: none; stroke: #cccccc; stroke-linecap: round"/>
     </g>
     <g id="text_3">
      <!-- 5000 -->
      <g style="fill: #262626" transform="translate(356.213849 318.595) scale(0.14 -0.14)">
       <defs>
        <path id="DejaVuSans-35" d="M 691 4666 
L 3169 4666 
L 3169 4134 
L 1269 4134 
L 1269 2991 
Q 1406 3038 1543 3061 
Q 1681 3084 1819 3084 
Q 2600 3084 3056 2656 
Q 3513 2228 3513 1497 
Q 3513 744 3044 326 
Q 2575 -91 1722 -91 
Q 1428 -91 1123 -41 
Q 819 9 494 109 
L 494 744 
Q 775 591 1075 516 
Q 1375 441 1709 441 
Q 2250 441 2565 725 
Q 2881 1009 2881 1497 
Q 2881 1984 2565 2268 
Q 2250 2553 1709 2553 
Q 1456 2553 1204 2497 
Q 953 2441 691 2322 
L 691 4666 
z
" transform="scale(0.015625)"/>
       </defs>
       <use xlink:href="#DejaVuSans-35"/>
       <use xlink:href="#DejaVuSans-30" transform="translate(63.623047 0)"/>
       <use xlink:href="#DejaVuSans-30" transform="translate(127.246094 0)"/>
       <use xlink:href="#DejaVuSans-30" transform="translate(190.869141 0)"/>
      </g>
     </g>
    </g>
    <g id="xtick_4">
     <g id="line2d_4">
      <path d="M 436.193674 298.457187 
L 436.193674 26.877187 
" clip-path="url(#pdad3734660)" style="fill: none; stroke: #cccccc; stroke-linecap: round"/>
     </g>
     <g id="text_4">
      <!-- 10000 -->
      <g style="fill: #262626" transform="translate(413.924924 318.595) scale(0.14 -0.14)">
       <use xlink:href="#DejaVuSans-31"/>
       <use xlink:href="#DejaVuSans-30" transform="translate(63.623047 0)"/>
       <use xlink:href="#DejaVuSans-30" transform="translate(127.246094 0)"/>
       <use xlink:href="#DejaVuSans-30" transform="translate(190.869141 0)"/>
       <use xlink:href="#DejaVuSans-30" transform="translate(254.492188 0)"/>
      </g>
     </g>
    </g>
    <g id="xtick_5"/>
    <g id="xtick_6"/>
    <g id="xtick_7"/>
    <g id="xtick_8"/>
    <g id="xtick_9"/>
    <g id="xtick_10"/>
    <g id="xtick_11"/>
    <g id="xtick_12"/>
    <g id="xtick_13"/>
    <g id="xtick_14"/>
    <g id="xtick_15"/>
    <g id="xtick_16"/>
    <g id="xtick_17"/>
    <g id="xtick_18"/>
   </g>
   <g id="matplotlib.axis_2">
    <g id="ytick_1">
     <g id="line2d_5">
      <path d="M 67.801875 289.790034 
L 453.736141 289.790034 
" clip-path="url(#pdad3734660)" style="fill: none; stroke: #cccccc; stroke-linecap: round"/>
     </g>
     <g id="text_5">
      <!-- 0.65 -->
      <g style="fill: #262626" transform="translate(27.13 295.10894) scale(0.14 -0.14)">
       <defs>
        <path id="DejaVuSans-2e" d="M 684 794 
L 1344 794 
L 1344 0 
L 684 0 
L 684 794 
z
" transform="scale(0.015625)"/>
        <path id="DejaVuSans-36" d="M 2113 2584 
Q 1688 2584 1439 2293 
Q 1191 2003 1191 1497 
Q 1191 994 1439 701 
Q 1688 409 2113 409 
Q 2538 409 2786 701 
Q 3034 994 3034 1497 
Q 3034 2003 2786 2293 
Q 2538 2584 2113 2584 
z
M 3366 4563 
L 3366 3988 
Q 3128 4100 2886 4159 
Q 2644 4219 2406 4219 
Q 1781 4219 1451 3797 
Q 1122 3375 1075 2522 
Q 1259 2794 1537 2939 
Q 1816 3084 2150 3084 
Q 2853 3084 3261 2657 
Q 3669 2231 3669 1497 
Q 3669 778 3244 343 
Q 2819 -91 2113 -91 
Q 1303 -91 875 529 
Q 447 1150 447 2328 
Q 447 3434 972 4092 
Q 1497 4750 2381 4750 
Q 2619 4750 2861 4703 
Q 3103 4656 3366 4563 
z
" transform="scale(0.015625)"/>
       </defs>
       <use xlink:href="#DejaVuSans-30"/>
       <use xlink:href="#DejaVuSans-2e" transform="translate(63.623047 0)"/>
       <use xlink:href="#DejaVuSans-36" transform="translate(95.410156 0)"/>
       <use xlink:href="#DejaVuSans-35" transform="translate(159.033203 0)"/>
      </g>
     </g>
    </g>
    <g id="ytick_2">
     <g id="line2d_6">
      <path d="M 67.801875 253.475788 
L 453.736141 253.475788 
" clip-path="url(#pdad3734660)" style="fill: none; stroke: #cccccc; stroke-linecap: round"/>
     </g>
     <g id="text_6">
      <!-- 0.70 -->
      <g style="fill: #262626" transform="translate(27.13 258.794694) scale(0.14 -0.14)">
       <defs>
        <path id="DejaVuSans-37" d="M 525 4666 
L 3525 4666 
L 3525 4397 
L 1831 0 
L 1172 0 
L 2766 4134 
L 525 4134 
L 525 4666 
z
" transform="scale(0.015625)"/>
       </defs>
       <use xlink:href="#DejaVuSans-30"/>
       <use xlink:href="#DejaVuSans-2e" transform="translate(63.623047 0)"/>
       <use xlink:href="#DejaVuSans-37" transform="translate(95.410156 0)"/>
       <use xlink:href="#DejaVuSans-30" transform="translate(159.033203 0)"/>
      </g>
     </g>
    </g>
    <g id="ytick_3">
     <g id="line2d_7">
      <path d="M 67.801875 217.161541 
L 453.736141 217.161541 
" clip-path="url(#pdad3734660)" style="fill: none; stroke: #cccccc; stroke-linecap: round"/>
     </g>
     <g id="text_7">
      <!-- 0.75 -->
      <g style="fill: #262626" transform="translate(27.13 222.480447) scale(0.14 -0.14)">
       <use xlink:href="#DejaVuSans-30"/>
       <use xlink:href="#DejaVuSans-2e" transform="translate(63.623047 0)"/>
       <use xlink:href="#DejaVuSans-37" transform="translate(95.410156 0)"/>
       <use xlink:href="#DejaVuSans-35" transform="translate(159.033203 0)"/>
      </g>
     </g>
    </g>
    <g id="ytick_4">
     <g id="line2d_8">
      <path d="M 67.801875 180.847294 
L 453.736141 180.847294 
" clip-path="url(#pdad3734660)" style="fill: none; stroke: #cccccc; stroke-linecap: round"/>
     </g>
     <g id="text_8">
      <!-- 0.80 -->
      <g style="fill: #262626" transform="translate(27.13 186.166201) scale(0.14 -0.14)">
       <defs>
        <path id="DejaVuSans-38" d="M 2034 2216 
Q 1584 2216 1326 1975 
Q 1069 1734 1069 1313 
Q 1069 891 1326 650 
Q 1584 409 2034 409 
Q 2484 409 2743 651 
Q 3003 894 3003 1313 
Q 3003 1734 2745 1975 
Q 2488 2216 2034 2216 
z
M 1403 2484 
Q 997 2584 770 2862 
Q 544 3141 544 3541 
Q 544 4100 942 4425 
Q 1341 4750 2034 4750 
Q 2731 4750 3128 4425 
Q 3525 4100 3525 3541 
Q 3525 3141 3298 2862 
Q 3072 2584 2669 2484 
Q 3125 2378 3379 2068 
Q 3634 1759 3634 1313 
Q 3634 634 3220 271 
Q 2806 -91 2034 -91 
Q 1263 -91 848 271 
Q 434 634 434 1313 
Q 434 1759 690 2068 
Q 947 2378 1403 2484 
z
M 1172 3481 
Q 1172 3119 1398 2916 
Q 1625 2713 2034 2713 
Q 2441 2713 2670 2916 
Q 2900 3119 2900 3481 
Q 2900 3844 2670 4047 
Q 2441 4250 2034 4250 
Q 1625 4250 1398 4047 
Q 1172 3844 1172 3481 
z
" transform="scale(0.015625)"/>
       </defs>
       <use xlink:href="#DejaVuSans-30"/>
       <use xlink:href="#DejaVuSans-2e" transform="translate(63.623047 0)"/>
       <use xlink:href="#DejaVuSans-38" transform="translate(95.410156 0)"/>
       <use xlink:href="#DejaVuSans-30" transform="translate(159.033203 0)"/>
      </g>
     </g>
    </g>
    <g id="ytick_5">
     <g id="line2d_9">
      <path d="M 67.801875 144.533048 
L 453.736141 144.533048 
" clip-path="url(#pdad3734660)" style="fill: none; stroke: #cccccc; stroke-linecap: round"/>
     </g>
     <g id="text_9">
      <!-- 0.85 -->
      <g style="fill: #262626" transform="translate(27.13 149.851954) scale(0.14 -0.14)">
       <use xlink:href="#DejaVuSans-30"/>
       <use xlink:href="#DejaVuSans-2e" transform="translate(63.623047 0)"/>
       <use xlink:href="#DejaVuSans-38" transform="translate(95.410156 0)"/>
       <use xlink:href="#DejaVuSans-35" transform="translate(159.033203 0)"/>
      </g>
     </g>
    </g>
    <g id="ytick_6">
     <g id="line2d_10">
      <path d="M 67.801875 108.218801 
L 453.736141 108.218801 
" clip-path="url(#pdad3734660)" style="fill: none; stroke: #cccccc; stroke-linecap: round"/>
     </g>
     <g id="text_10">
      <!-- 0.90 -->
      <g style="fill: #262626" transform="translate(27.13 113.537708) scale(0.14 -0.14)">
       <defs>
        <path id="DejaVuSans-39" d="M 703 97 
L 703 672 
Q 941 559 1184 500 
Q 1428 441 1663 441 
Q 2288 441 2617 861 
Q 2947 1281 2994 2138 
Q 2813 1869 2534 1725 
Q 2256 1581 1919 1581 
Q 1219 1581 811 2004 
Q 403 2428 403 3163 
Q 403 3881 828 4315 
Q 1253 4750 1959 4750 
Q 2769 4750 3195 4129 
Q 3622 3509 3622 2328 
Q 3622 1225 3098 567 
Q 2575 -91 1691 -91 
Q 1453 -91 1209 -44 
Q 966 3 703 97 
z
M 1959 2075 
Q 2384 2075 2632 2365 
Q 2881 2656 2881 3163 
Q 2881 3666 2632 3958 
Q 2384 4250 1959 4250 
Q 1534 4250 1286 3958 
Q 1038 3666 1038 3163 
Q 1038 2656 1286 2365 
Q 1534 2075 1959 2075 
z
" transform="scale(0.015625)"/>
       </defs>
       <use xlink:href="#DejaVuSans-30"/>
       <use xlink:href="#DejaVuSans-2e" transform="translate(63.623047 0)"/>
       <use xlink:href="#DejaVuSans-39" transform="translate(95.410156 0)"/>
       <use xlink:href="#DejaVuSans-30" transform="translate(159.033203 0)"/>
      </g>
     </g>
    </g>
    <g id="ytick_7">
     <g id="line2d_11">
      <path d="M 67.801875 71.904555 
L 453.736141 71.904555 
" clip-path="url(#pdad3734660)" style="fill: none; stroke: #cccccc; stroke-linecap: round"/>
     </g>
     <g id="text_11">
      <!-- 0.95 -->
      <g style="fill: #262626" transform="translate(27.13 77.223461) scale(0.14 -0.14)">
       <use xlink:href="#DejaVuSans-30"/>
       <use xlink:href="#DejaVuSans-2e" transform="translate(63.623047 0)"/>
       <use xlink:href="#DejaVuSans-39" transform="translate(95.410156 0)"/>
       <use xlink:href="#DejaVuSans-35" transform="translate(159.033203 0)"/>
      </g>
     </g>
    </g>
    <g id="ytick_8">
     <g id="line2d_12">
      <path d="M 67.801875 35.590308 
L 453.736141 35.590308 
" clip-path="url(#pdad3734660)" style="fill: none; stroke: #cccccc; stroke-linecap: round"/>
     </g>
     <g id="text_12">
      <!-- 1.00 -->
      <g style="fill: #262626" transform="translate(27.13 40.909215) scale(0.14 -0.14)">
       <use xlink:href="#DejaVuSans-31"/>
       <use xlink:href="#DejaVuSans-2e" transform="translate(63.623047 0)"/>
       <use xlink:href="#DejaVuSans-30" transform="translate(95.410156 0)"/>
       <use xlink:href="#DejaVuSans-30" transform="translate(159.033203 0)"/>
      </g>
     </g>
    </g>
    <g id="text_13">
     <!-- Recall_total -->
     <g style="fill: #262626" transform="translate(19.3575 208.827187) rotate(-90) scale(0.16 -0.16)">
      <defs>
       <path id="DejaVuSans-52" d="M 2841 2188 
Q 3044 2119 3236 1894 
Q 3428 1669 3622 1275 
L 4263 0 
L 3584 0 
L 2988 1197 
Q 2756 1666 2539 1819 
Q 2322 1972 1947 1972 
L 1259 1972 
L 1259 0 
L 628 0 
L 628 4666 
L 2053 4666 
Q 2853 4666 3247 4331 
Q 3641 3997 3641 3322 
Q 3641 2881 3436 2590 
Q 3231 2300 2841 2188 
z
M 1259 4147 
L 1259 2491 
L 2053 2491 
Q 2509 2491 2742 2702 
Q 2975 2913 2975 3322 
Q 2975 3731 2742 3939 
Q 2509 4147 2053 4147 
L 1259 4147 
z
" transform="scale(0.015625)"/>
       <path id="DejaVuSans-65" d="M 3597 1894 
L 3597 1613 
L 953 1613 
Q 991 1019 1311 708 
Q 1631 397 2203 397 
Q 2534 397 2845 478 
Q 3156 559 3463 722 
L 3463 178 
Q 3153 47 2828 -22 
Q 2503 -91 2169 -91 
Q 1331 -91 842 396 
Q 353 884 353 1716 
Q 353 2575 817 3079 
Q 1281 3584 2069 3584 
Q 2775 3584 3186 3129 
Q 3597 2675 3597 1894 
z
M 3022 2063 
Q 3016 2534 2758 2815 
Q 2500 3097 2075 3097 
Q 1594 3097 1305 2825 
Q 1016 2553 972 2059 
L 3022 2063 
z
" transform="scale(0.015625)"/>
       <path id="DejaVuSans-63" d="M 3122 3366 
L 3122 2828 
Q 2878 2963 2633 3030 
Q 2388 3097 2138 3097 
Q 1578 3097 1268 2742 
Q 959 2388 959 1747 
Q 959 1106 1268 751 
Q 1578 397 2138 397 
Q 2388 397 2633 464 
Q 2878 531 3122 666 
L 3122 134 
Q 2881 22 2623 -34 
Q 2366 -91 2075 -91 
Q 1284 -91 818 406 
Q 353 903 353 1747 
Q 353 2603 823 3093 
Q 1294 3584 2113 3584 
Q 2378 3584 2631 3529 
Q 2884 3475 3122 3366 
z
" transform="scale(0.015625)"/>
       <path id="DejaVuSans-61" d="M 2194 1759 
Q 1497 1759 1228 1600 
Q 959 1441 959 1056 
Q 959 750 1161 570 
Q 1363 391 1709 391 
Q 2188 391 2477 730 
Q 2766 1069 2766 1631 
L 2766 1759 
L 2194 1759 
z
M 3341 1997 
L 3341 0 
L 2766 0 
L 2766 531 
Q 2569 213 2275 61 
Q 1981 -91 1556 -91 
Q 1019 -91 701 211 
Q 384 513 384 1019 
Q 384 1609 779 1909 
Q 1175 2209 1959 2209 
L 2766 2209 
L 2766 2266 
Q 2766 2663 2505 2880 
Q 2244 3097 1772 3097 
Q 1472 3097 1187 3025 
Q 903 2953 641 2809 
L 641 3341 
Q 956 3463 1253 3523 
Q 1550 3584 1831 3584 
Q 2591 3584 2966 3190 
Q 3341 2797 3341 1997 
z
" transform="scale(0.015625)"/>
       <path id="DejaVuSans-6c" d="M 603 4863 
L 1178 4863 
L 1178 0 
L 603 0 
L 603 4863 
z
" transform="scale(0.015625)"/>
       <path id="DejaVuSans-5f" d="M 3263 -1063 
L 3263 -1509 
L -63 -1509 
L -63 -1063 
L 3263 -1063 
z
" transform="scale(0.015625)"/>
       <path id="DejaVuSans-74" d="M 1172 4494 
L 1172 3500 
L 2356 3500 
L 2356 3053 
L 1172 3053 
L 1172 1153 
Q 1172 725 1289 603 
Q 1406 481 1766 481 
L 2356 481 
L 2356 0 
L 1766 0 
Q 1100 0 847 248 
Q 594 497 594 1153 
L 594 3053 
L 172 3053 
L 172 3500 
L 594 3500 
L 594 4494 
L 1172 4494 
z
" transform="scale(0.015625)"/>
       <path id="DejaVuSans-6f" d="M 1959 3097 
Q 1497 3097 1228 2736 
Q 959 2375 959 1747 
Q 959 1119 1226 758 
Q 1494 397 1959 397 
Q 2419 397 2687 759 
Q 2956 1122 2956 1747 
Q 2956 2369 2687 2733 
Q 2419 3097 1959 3097 
z
M 1959 3584 
Q 2709 3584 3137 3096 
Q 3566 2609 3566 1747 
Q 3566 888 3137 398 
Q 2709 -91 1959 -91 
Q 1206 -91 779 398 
Q 353 888 353 1747 
Q 353 2609 779 3096 
Q 1206 3584 1959 3584 
z
" transform="scale(0.015625)"/>
      </defs>
      <use xlink:href="#DejaVuSans-52"/>
      <use xlink:href="#DejaVuSans-65" transform="translate(64.982422 0)"/>
      <use xlink:href="#DejaVuSans-63" transform="translate(126.505859 0)"/>
      <use xlink:href="#DejaVuSans-61" transform="translate(181.486328 0)"/>
      <use xlink:href="#DejaVuSans-6c" transform="translate(242.765625 0)"/>
      <use xlink:href="#DejaVuSans-6c" transform="translate(270.548828 0)"/>
      <use xlink:href="#DejaVuSans-5f" transform="translate(298.332031 0)"/>
      <use xlink:href="#DejaVuSans-74" transform="translate(348.332031 0)"/>
      <use xlink:href="#DejaVuSans-6f" transform="translate(387.541016 0)"/>
      <use xlink:href="#DejaVuSans-74" transform="translate(448.722656 0)"/>
      <use xlink:href="#DejaVuSans-61" transform="translate(487.931641 0)"/>
      <use xlink:href="#DejaVuSans-6c" transform="translate(549.210938 0)"/>
     </g>
    </g>
   </g>
   <g id="line2d_13">
    <path d="M 85.344342 231.68724 
L 229.686595 242.581514 
L 374.028849 242.581514 
L 436.193674 249.844363 
" clip-path="url(#pdad3734660)" style="fill: none; stroke: #4c72b0; stroke-width: 1.5; stroke-linecap: round"/>
    <defs>
     <path id="m7a61aa504e" d="M 0 3 
C 0.795609 3 1.55874 2.683901 2.12132 2.12132 
C 2.683901 1.55874 3 0.795609 3 0 
C 3 -0.795609 2.683901 -1.55874 2.12132 -2.12132 
C 1.55874 -2.683901 0.795609 -3 0 -3 
C -0.795609 -3 -1.55874 -2.683901 -2.12132 -2.12132 
C -2.683901 -1.55874 -3 -0.795609 -3 0 
C -3 0.795609 -2.683901 1.55874 -2.12132 2.12132 
C -1.55874 2.683901 -0.795609 3 0 3 
z
" style="stroke: #4c72b0"/>
    </defs>
    <g clip-path="url(#pdad3734660)">
     <use xlink:href="#m7a61aa504e" x="85.344342" y="231.68724" style="fill: #4c72b0; stroke: #4c72b0"/>
     <use xlink:href="#m7a61aa504e" x="229.686595" y="242.581514" style="fill: #4c72b0; stroke: #4c72b0"/>
     <use xlink:href="#m7a61aa504e" x="374.028849" y="242.581514" style="fill: #4c72b0; stroke: #4c72b0"/>
     <use xlink:href="#m7a61aa504e" x="436.193674" y="249.844363" style="fill: #4c72b0; stroke: #4c72b0"/>
    </g>
   </g>
   <g id="line2d_14">
    <path d="M 85.344342 71.904555 
L 229.686595 108.218801 
L 374.028849 68.27313 
L 436.193674 53.747432 
" clip-path="url(#pdad3734660)" style="fill: none; stroke: #dd8452; stroke-width: 1.5; stroke-linecap: round"/>
    <defs>
     <path id="m6a9f582461" d="M 0 3 
C 0.795609 3 1.55874 2.683901 2.12132 2.12132 
C 2.683901 1.55874 3 0.795609 3 0 
C 3 -0.795609 2.683901 -1.55874 2.12132 -2.12132 
C 1.55874 -2.683901 0.795609 -3 0 -3 
C -0.795609 -3 -1.55874 -2.683901 -2.12132 -2.12132 
C -2.683901 -1.55874 -3 -0.795609 -3 0 
C -3 0.795609 -2.683901 1.55874 -2.12132 2.12132 
C -1.55874 2.683901 -0.795609 3 0 3 
z
" style="stroke: #dd8452"/>
    </defs>
    <g clip-path="url(#pdad3734660)">
     <use xlink:href="#m6a9f582461" x="85.344342" y="71.904555" style="fill: #dd8452; stroke: #dd8452"/>
     <use xlink:href="#m6a9f582461" x="229.686595" y="108.218801" style="fill: #dd8452; stroke: #dd8452"/>
     <use xlink:href="#m6a9f582461" x="374.028849" y="68.27313" style="fill: #dd8452; stroke: #dd8452"/>
     <use xlink:href="#m6a9f582461" x="436.193674" y="53.747432" style="fill: #dd8452; stroke: #dd8452"/>
    </g>
   </g>
   <g id="line2d_15">
    <path d="M 85.344342 173.584445 
L 229.686595 144.533048 
L 374.028849 144.533048 
L 436.193674 169.953021 
" clip-path="url(#pdad3734660)" style="fill: none; stroke: #55a868; stroke-width: 1.5; stroke-linecap: round"/>
    <defs>
     <path id="m10100e7e84" d="M 0 3 
C 0.795609 3 1.55874 2.683901 2.12132 2.12132 
C 2.683901 1.55874 3 0.795609 3 0 
C 3 -0.795609 2.683901 -1.55874 2.12132 -2.12132 
C 1.55874 -2.683901 0.795609 -3 0 -3 
C -0.795609 -3 -1.55874 -2.683901 -2.12132 -2.12132 
C -2.683901 -1.55874 -3 -0.795609 -3 0 
C -3 0.795609 -2.683901 1.55874 -2.12132 2.12132 
C -1.55874 2.683901 -0.795609 3 0 3 
z
" style="stroke: #55a868"/>
    </defs>
    <g clip-path="url(#pdad3734660)">
     <use xlink:href="#m10100e7e84" x="85.344342" y="173.584445" style="fill: #55a868; stroke: #55a868"/>
     <use xlink:href="#m10100e7e84" x="229.686595" y="144.533048" style="fill: #55a868; stroke: #55a868"/>
     <use xlink:href="#m10100e7e84" x="374.028849" y="144.533048" style="fill: #55a868; stroke: #55a868"/>
     <use xlink:href="#m10100e7e84" x="436.193674" y="169.953021" style="fill: #55a868; stroke: #55a868"/>
    </g>
   </g>
   <g id="patch_3">
    <path d="M 67.801875 298.457187 
L 67.801875 26.877187 
" style="fill: none; stroke: #cccccc; stroke-width: 1.25; stroke-linejoin: miter; stroke-linecap: square"/>
   </g>
   <g id="patch_4">
    <path d="M 453.736141 298.457187 
L 453.736141 26.877187 
" style="fill: none; stroke: #cccccc; stroke-width: 1.25; stroke-linejoin: miter; stroke-linecap: square"/>
   </g>
   <g id="patch_5">
    <path d="M 67.801875 298.457187 
L 453.736141 298.457187 
" style="fill: none; stroke: #cccccc; stroke-width: 1.25; stroke-linejoin: miter; stroke-linecap: square"/>
   </g>
   <g id="patch_6">
    <path d="M 67.801875 26.877187 
L 453.736141 26.877187 
" style="fill: none; stroke: #cccccc; stroke-width: 1.25; stroke-linejoin: miter; stroke-linecap: square"/>
   </g>
   <g id="text_14">
    <!-- B5 -->
    <g style="fill: #262626" transform="translate(248.867914 20.877187) scale(0.18 -0.18)">
     <defs>
      <path id="DejaVuSans-42" d="M 1259 2228 
L 1259 519 
L 2272 519 
Q 2781 519 3026 730 
Q 3272 941 3272 1375 
Q 3272 1813 3026 2020 
Q 2781 2228 2272 2228 
L 1259 2228 
z
M 1259 4147 
L 1259 2741 
L 2194 2741 
Q 2656 2741 2882 2914 
Q 3109 3088 3109 3444 
Q 3109 3797 2882 3972 
Q 2656 4147 2194 4147 
L 1259 4147 
z
M 628 4666 
L 2241 4666 
Q 2963 4666 3353 4366 
Q 3744 4066 3744 3513 
Q 3744 3084 3544 2831 
Q 3344 2578 2956 2516 
Q 3422 2416 3680 2098 
Q 3938 1781 3938 1306 
Q 3938 681 3513 340 
Q 3088 0 2303 0 
L 628 0 
L 628 4666 
z
" transform="scale(0.015625)"/>
     </defs>
     <use xlink:href="#DejaVuSans-42"/>
     <use xlink:href="#DejaVuSans-35" transform="translate(68.603516 0)"/>
    </g>
   </g>
  </g>
  <g id="axes_2">
   <g id="patch_7">
    <path d="M 475.205833 298.457187 
L 861.140099 298.457187 
L 861.140099 26.877187 
L 475.205833 26.877187 
z
" style="fill: #ffffff"/>
   </g>
   <g id="matplotlib.axis_3">
    <g id="xtick_19">
     <g id="line2d_16">
      <path d="M 492.7483 298.457187 
L 492.7483 26.877187 
" clip-path="url(#pb129a3346e)" style="fill: none; stroke: #cccccc; stroke-linecap: round"/>
     </g>
     <g id="text_15">
      <!-- 200 -->
      <g style="fill: #262626" transform="translate(479.38705 318.595) scale(0.14 -0.14)">
       <use xlink:href="#DejaVuSans-32"/>
       <use xlink:href="#DejaVuSans-30" transform="translate(63.623047 0)"/>
       <use xlink:href="#DejaVuSans-30" transform="translate(127.246094 0)"/>
      </g>
     </g>
    </g>
    <g id="xtick_20">
     <g id="line2d_17">
      <path d="M 637.090554 298.457187 
L 637.090554 26.877187 
" clip-path="url(#pb129a3346e)" style="fill: none; stroke: #cccccc; stroke-linecap: round"/>
     </g>
     <g id="text_16">
      <!-- 1000 -->
      <g style="fill: #262626" transform="translate(619.275554 318.595) scale(0.14 -0.14)">
       <use xlink:href="#DejaVuSans-31"/>
       <use xlink:href="#DejaVuSans-30" transform="translate(63.623047 0)"/>
       <use xlink:href="#DejaVuSans-30" transform="translate(127.246094 0)"/>
       <use xlink:href="#DejaVuSans-30" transform="translate(190.869141 0)"/>
      </g>
     </g>
    </g>
    <g id="xtick_21">
     <g id="line2d_18">
      <path d="M 781.432807 298.457187 
L 781.432807 26.877187 
" clip-path="url(#pb129a3346e)" style="fill: none; stroke: #cccccc; stroke-linecap: round"/>
     </g>
     <g id="text_17">
      <!-- 5000 -->
      <g style="fill: #262626" transform="translate(763.617807 318.595) scale(0.14 -0.14)">
       <use xlink:href="#DejaVuSans-35"/>
       <use xlink:href="#DejaVuSans-30" transform="translate(63.623047 0)"/>
       <use xlink:href="#DejaVuSans-30" transform="translate(127.246094 0)"/>
       <use xlink:href="#DejaVuSans-30" transform="translate(190.869141 0)"/>
      </g>
     </g>
    </g>
    <g id="xtick_22">
     <g id="line2d_19">
      <path d="M 843.597633 298.457187 
L 843.597633 26.877187 
" clip-path="url(#pb129a3346e)" style="fill: none; stroke: #cccccc; stroke-linecap: round"/>
     </g>
     <g id="text_18">
      <!-- 10000 -->
      <g style="fill: #262626" transform="translate(821.328883 318.595) scale(0.14 -0.14)">
       <use xlink:href="#DejaVuSans-31"/>
       <use xlink:href="#DejaVuSans-30" transform="translate(63.623047 0)"/>
       <use xlink:href="#DejaVuSans-30" transform="translate(127.246094 0)"/>
       <use xlink:href="#DejaVuSans-30" transform="translate(190.869141 0)"/>
       <use xlink:href="#DejaVuSans-30" transform="translate(254.492188 0)"/>
      </g>
     </g>
    </g>
    <g id="xtick_23"/>
    <g id="xtick_24"/>
    <g id="xtick_25"/>
    <g id="xtick_26"/>
    <g id="xtick_27"/>
    <g id="xtick_28"/>
    <g id="xtick_29"/>
    <g id="xtick_30"/>
    <g id="xtick_31"/>
    <g id="xtick_32"/>
    <g id="xtick_33"/>
    <g id="xtick_34"/>
    <g id="xtick_35"/>
    <g id="xtick_36"/>
    <g id="text_19">
     <!-- Train size -->
     <g style="fill: #262626" transform="translate(630.929216 337.664062) scale(0.16 -0.16)">
      <defs>
       <path id="DejaVuSans-54" d="M -19 4666 
L 3928 4666 
L 3928 4134 
L 2272 4134 
L 2272 0 
L 1638 0 
L 1638 4134 
L -19 4134 
L -19 4666 
z
" transform="scale(0.015625)"/>
       <path id="DejaVuSans-72" d="M 2631 2963 
Q 2534 3019 2420 3045 
Q 2306 3072 2169 3072 
Q 1681 3072 1420 2755 
Q 1159 2438 1159 1844 
L 1159 0 
L 581 0 
L 581 3500 
L 1159 3500 
L 1159 2956 
Q 1341 3275 1631 3429 
Q 1922 3584 2338 3584 
Q 2397 3584 2469 3576 
Q 2541 3569 2628 3553 
L 2631 2963 
z
" transform="scale(0.015625)"/>
       <path id="DejaVuSans-69" d="M 603 3500 
L 1178 3500 
L 1178 0 
L 603 0 
L 603 3500 
z
M 603 4863 
L 1178 4863 
L 1178 4134 
L 603 4134 
L 603 4863 
z
" transform="scale(0.015625)"/>
       <path id="DejaVuSans-6e" d="M 3513 2113 
L 3513 0 
L 2938 0 
L 2938 2094 
Q 2938 2591 2744 2837 
Q 2550 3084 2163 3084 
Q 1697 3084 1428 2787 
Q 1159 2491 1159 1978 
L 1159 0 
L 581 0 
L 581 3500 
L 1159 3500 
L 1159 2956 
Q 1366 3272 1645 3428 
Q 1925 3584 2291 3584 
Q 2894 3584 3203 3211 
Q 3513 2838 3513 2113 
z
" transform="scale(0.015625)"/>
       <path id="DejaVuSans-20" transform="scale(0.015625)"/>
       <path id="DejaVuSans-73" d="M 2834 3397 
L 2834 2853 
Q 2591 2978 2328 3040 
Q 2066 3103 1784 3103 
Q 1356 3103 1142 2972 
Q 928 2841 928 2578 
Q 928 2378 1081 2264 
Q 1234 2150 1697 2047 
L 1894 2003 
Q 2506 1872 2764 1633 
Q 3022 1394 3022 966 
Q 3022 478 2636 193 
Q 2250 -91 1575 -91 
Q 1294 -91 989 -36 
Q 684 19 347 128 
L 347 722 
Q 666 556 975 473 
Q 1284 391 1588 391 
Q 1994 391 2212 530 
Q 2431 669 2431 922 
Q 2431 1156 2273 1281 
Q 2116 1406 1581 1522 
L 1381 1569 
Q 847 1681 609 1914 
Q 372 2147 372 2553 
Q 372 3047 722 3315 
Q 1072 3584 1716 3584 
Q 2034 3584 2315 3537 
Q 2597 3491 2834 3397 
z
" transform="scale(0.015625)"/>
       <path id="DejaVuSans-7a" d="M 353 3500 
L 3084 3500 
L 3084 2975 
L 922 459 
L 3084 459 
L 3084 0 
L 275 0 
L 275 525 
L 2438 3041 
L 353 3041 
L 353 3500 
z
" transform="scale(0.015625)"/>
      </defs>
      <use xlink:href="#DejaVuSans-54"/>
      <use xlink:href="#DejaVuSans-72" transform="translate(46.333984 0)"/>
      <use xlink:href="#DejaVuSans-61" transform="translate(87.447266 0)"/>
      <use xlink:href="#DejaVuSans-69" transform="translate(148.726562 0)"/>
      <use xlink:href="#DejaVuSans-6e" transform="translate(176.509766 0)"/>
      <use xlink:href="#DejaVuSans-20" transform="translate(239.888672 0)"/>
      <use xlink:href="#DejaVuSans-73" transform="translate(271.675781 0)"/>
      <use xlink:href="#DejaVuSans-69" transform="translate(323.775391 0)"/>
      <use xlink:href="#DejaVuSans-7a" transform="translate(351.558594 0)"/>
      <use xlink:href="#DejaVuSans-65" transform="translate(404.048828 0)"/>
     </g>
    </g>
   </g>
   <g id="matplotlib.axis_4">
    <g id="ytick_9">
     <g id="line2d_20">
      <path d="M 475.205833 289.790034 
L 861.140099 289.790034 
" clip-path="url(#pb129a3346e)" style="fill: none; stroke: #cccccc; stroke-linecap: round"/>
     </g>
    </g>
    <g id="ytick_10">
     <g id="line2d_21">
      <path d="M 475.205833 253.475788 
L 861.140099 253.475788 
" clip-path="url(#pb129a3346e)" style="fill: none; stroke: #cccccc; stroke-linecap: round"/>
     </g>
    </g>
    <g id="ytick_11">
     <g id="line2d_22">
      <path d="M 475.205833 217.161541 
L 861.140099 217.161541 
" clip-path="url(#pb129a3346e)" style="fill: none; stroke: #cccccc; stroke-linecap: round"/>
     </g>
    </g>
    <g id="ytick_12">
     <g id="line2d_23">
      <path d="M 475.205833 180.847294 
L 861.140099 180.847294 
" clip-path="url(#pb129a3346e)" style="fill: none; stroke: #cccccc; stroke-linecap: round"/>
     </g>
    </g>
    <g id="ytick_13">
     <g id="line2d_24">
      <path d="M 475.205833 144.533048 
L 861.140099 144.533048 
" clip-path="url(#pb129a3346e)" style="fill: none; stroke: #cccccc; stroke-linecap: round"/>
     </g>
    </g>
    <g id="ytick_14">
     <g id="line2d_25">
      <path d="M 475.205833 108.218801 
L 861.140099 108.218801 
" clip-path="url(#pb129a3346e)" style="fill: none; stroke: #cccccc; stroke-linecap: round"/>
     </g>
    </g>
    <g id="ytick_15">
     <g id="line2d_26">
      <path d="M 475.205833 71.904555 
L 861.140099 71.904555 
" clip-path="url(#pb129a3346e)" style="fill: none; stroke: #cccccc; stroke-linecap: round"/>
     </g>
    </g>
    <g id="ytick_16">
     <g id="line2d_27">
      <path d="M 475.205833 35.590308 
L 861.140099 35.590308 
" clip-path="url(#pb129a3346e)" style="fill: none; stroke: #cccccc; stroke-linecap: round"/>
     </g>
    </g>
   </g>
   <g id="line2d_28">
    <path d="M 492.7483 271.632911 
L 637.090554 246.212938 
L 781.432807 220.792966 
L 843.597633 202.635842 
" clip-path="url(#pb129a3346e)" style="fill: none; stroke: #4c72b0; stroke-width: 1.5; stroke-linecap: round"/>
    <g clip-path="url(#pb129a3346e)">
     <use xlink:href="#m7a61aa504e" x="492.7483" y="271.632911" style="fill: #4c72b0; stroke: #4c72b0"/>
     <use xlink:href="#m7a61aa504e" x="637.090554" y="246.212938" style="fill: #4c72b0; stroke: #4c72b0"/>
     <use xlink:href="#m7a61aa504e" x="781.432807" y="220.792966" style="fill: #4c72b0; stroke: #4c72b0"/>
     <use xlink:href="#m7a61aa504e" x="843.597633" y="202.635842" style="fill: #4c72b0; stroke: #4c72b0"/>
    </g>
   </g>
   <g id="line2d_29">
    <path d="M 492.7483 70.088843 
L 637.090554 46.484582 
L 781.432807 39.221733 
L 843.597633 46.484582 
" clip-path="url(#pb129a3346e)" style="fill: none; stroke: #dd8452; stroke-width: 1.5; stroke-linecap: round"/>
    <g clip-path="url(#pb129a3346e)">
     <use xlink:href="#m6a9f582461" x="492.7483" y="70.088843" style="fill: #dd8452; stroke: #dd8452"/>
     <use xlink:href="#m6a9f582461" x="637.090554" y="46.484582" style="fill: #dd8452; stroke: #dd8452"/>
     <use xlink:href="#m6a9f582461" x="781.432807" y="39.221733" style="fill: #dd8452; stroke: #dd8452"/>
     <use xlink:href="#m6a9f582461" x="843.597633" y="46.484582" style="fill: #dd8452; stroke: #dd8452"/>
    </g>
   </g>
   <g id="line2d_30">
    <path d="M 492.7483 213.530116 
L 637.090554 124.560212 
L 781.432807 97.324527 
L 843.597633 86.430253 
" clip-path="url(#pb129a3346e)" style="fill: none; stroke: #55a868; stroke-width: 1.5; stroke-linecap: round"/>
    <g clip-path="url(#pb129a3346e)">
     <use xlink:href="#m10100e7e84" x="492.7483" y="213.530116" style="fill: #55a868; stroke: #55a868"/>
     <use xlink:href="#m10100e7e84" x="637.090554" y="124.560212" style="fill: #55a868; stroke: #55a868"/>
     <use xlink:href="#m10100e7e84" x="781.432807" y="97.324527" style="fill: #55a868; stroke: #55a868"/>
     <use xlink:href="#m10100e7e84" x="843.597633" y="86.430253" style="fill: #55a868; stroke: #55a868"/>
    </g>
   </g>
   <g id="patch_8">
    <path d="M 475.205833 298.457187 
L 475.205833 26.877187 
" style="fill: none; stroke: #cccccc; stroke-width: 1.25; stroke-linejoin: miter; stroke-linecap: square"/>
   </g>
   <g id="patch_9">
    <path d="M 861.140099 298.457187 
L 861.140099 26.877187 
" style="fill: none; stroke: #cccccc; stroke-width: 1.25; stroke-linejoin: miter; stroke-linecap: square"/>
   </g>
   <g id="patch_10">
    <path d="M 475.205833 298.457187 
L 861.140099 298.457187 
" style="fill: none; stroke: #cccccc; stroke-width: 1.25; stroke-linejoin: miter; stroke-linecap: square"/>
   </g>
   <g id="patch_11">
    <path d="M 475.205833 26.877187 
L 861.140099 26.877187 
" style="fill: none; stroke: #cccccc; stroke-width: 1.25; stroke-linejoin: miter; stroke-linecap: square"/>
   </g>
   <g id="text_20">
    <!-- B8 -->
    <g style="fill: #262626" transform="translate(656.271872 20.877187) scale(0.18 -0.18)">
     <use xlink:href="#DejaVuSans-42"/>
     <use xlink:href="#DejaVuSans-38" transform="translate(68.603516 0)"/>
    </g>
   </g>
  </g>
  <g id="axes_3">
   <g id="patch_12">
    <path d="M 882.609792 298.457187 
L 1268.544057 298.457187 
L 1268.544057 26.877187 
L 882.609792 26.877187 
z
" style="fill: #ffffff"/>
   </g>
   <g id="matplotlib.axis_5">
    <g id="xtick_37">
     <g id="line2d_31">
      <path d="M 900.152258 298.457187 
L 900.152258 26.877187 
" clip-path="url(#p6d72273402)" style="fill: none; stroke: #cccccc; stroke-linecap: round"/>
     </g>
     <g id="text_21">
      <!-- 200 -->
      <g style="fill: #262626" transform="translate(886.791008 318.595) scale(0.14 -0.14)">
       <use xlink:href="#DejaVuSans-32"/>
       <use xlink:href="#DejaVuSans-30" transform="translate(63.623047 0)"/>
       <use xlink:href="#DejaVuSans-30" transform="translate(127.246094 0)"/>
      </g>
     </g>
    </g>
    <g id="xtick_38">
     <g id="line2d_32">
      <path d="M 1044.494512 298.457187 
L 1044.494512 26.877187 
" clip-path="url(#p6d72273402)" style="fill: none; stroke: #cccccc; stroke-linecap: round"/>
     </g>
     <g id="text_22">
      <!-- 1000 -->
      <g style="fill: #262626" transform="translate(1026.679512 318.595) scale(0.14 -0.14)">
       <use xlink:href="#DejaVuSans-31"/>
       <use xlink:href="#DejaVuSans-30" transform="translate(63.623047 0)"/>
       <use xlink:href="#DejaVuSans-30" transform="translate(127.246094 0)"/>
       <use xlink:href="#DejaVuSans-30" transform="translate(190.869141 0)"/>
      </g>
     </g>
    </g>
    <g id="xtick_39">
     <g id="line2d_33">
      <path d="M 1188.836766 298.457187 
L 1188.836766 26.877187 
" clip-path="url(#p6d72273402)" style="fill: none; stroke: #cccccc; stroke-linecap: round"/>
     </g>
     <g id="text_23">
      <!-- 5000 -->
      <g style="fill: #262626" transform="translate(1171.021766 318.595) scale(0.14 -0.14)">
       <use xlink:href="#DejaVuSans-35"/>
       <use xlink:href="#DejaVuSans-30" transform="translate(63.623047 0)"/>
       <use xlink:href="#DejaVuSans-30" transform="translate(127.246094 0)"/>
       <use xlink:href="#DejaVuSans-30" transform="translate(190.869141 0)"/>
      </g>
     </g>
    </g>
    <g id="xtick_40">
     <g id="line2d_34">
      <path d="M 1251.001591 298.457187 
L 1251.001591 26.877187 
" clip-path="url(#p6d72273402)" style="fill: none; stroke: #cccccc; stroke-linecap: round"/>
     </g>
     <g id="text_24">
      <!-- 10000 -->
      <g style="fill: #262626" transform="translate(1228.732841 318.595) scale(0.14 -0.14)">
       <use xlink:href="#DejaVuSans-31"/>
       <use xlink:href="#DejaVuSans-30" transform="translate(63.623047 0)"/>
       <use xlink:href="#DejaVuSans-30" transform="translate(127.246094 0)"/>
       <use xlink:href="#DejaVuSans-30" transform="translate(190.869141 0)"/>
       <use xlink:href="#DejaVuSans-30" transform="translate(254.492188 0)"/>
      </g>
     </g>
    </g>
    <g id="xtick_41"/>
    <g id="xtick_42"/>
    <g id="xtick_43"/>
    <g id="xtick_44"/>
    <g id="xtick_45"/>
    <g id="xtick_46"/>
    <g id="xtick_47"/>
    <g id="xtick_48"/>
    <g id="xtick_49"/>
    <g id="xtick_50"/>
    <g id="xtick_51"/>
    <g id="xtick_52"/>
    <g id="xtick_53"/>
    <g id="xtick_54"/>
   </g>
   <g id="matplotlib.axis_6">
    <g id="ytick_17">
     <g id="line2d_35">
      <path d="M 882.609792 289.790034 
L 1268.544057 289.790034 
" clip-path="url(#p6d72273402)" style="fill: none; stroke: #cccccc; stroke-linecap: round"/>
     </g>
    </g>
    <g id="ytick_18">
     <g id="line2d_36">
      <path d="M 882.609792 253.475788 
L 1268.544057 253.475788 
" clip-path="url(#p6d72273402)" style="fill: none; stroke: #cccccc; stroke-linecap: round"/>
     </g>
    </g>
    <g id="ytick_19">
     <g id="line2d_37">
      <path d="M 882.609792 217.161541 
L 1268.544057 217.161541 
" clip-path="url(#p6d72273402)" style="fill: none; stroke: #cccccc; stroke-linecap: round"/>
     </g>
    </g>
    <g id="ytick_20">
     <g id="line2d_38">
      <path d="M 882.609792 180.847294 
L 1268.544057 180.847294 
" clip-path="url(#p6d72273402)" style="fill: none; stroke: #cccccc; stroke-linecap: round"/>
     </g>
    </g>
    <g id="ytick_21">
     <g id="line2d_39">
      <path d="M 882.609792 144.533048 
L 1268.544057 144.533048 
" clip-path="url(#p6d72273402)" style="fill: none; stroke: #cccccc; stroke-linecap: round"/>
     </g>
    </g>
    <g id="ytick_22">
     <g id="line2d_40">
      <path d="M 882.609792 108.218801 
L 1268.544057 108.218801 
" clip-path="url(#p6d72273402)" style="fill: none; stroke: #cccccc; stroke-linecap: round"/>
     </g>
    </g>
    <g id="ytick_23">
     <g id="line2d_41">
      <path d="M 882.609792 71.904555 
L 1268.544057 71.904555 
" clip-path="url(#p6d72273402)" style="fill: none; stroke: #cccccc; stroke-linecap: round"/>
     </g>
    </g>
    <g id="ytick_24">
     <g id="line2d_42">
      <path d="M 882.609792 35.590308 
L 1268.544057 35.590308 
" clip-path="url(#p6d72273402)" style="fill: none; stroke: #cccccc; stroke-linecap: round"/>
     </g>
    </g>
   </g>
   <g id="line2d_43">
    <path d="M 900.152258 262.209594 
L 1044.494512 229.572739 
L 1188.836766 201.992299 
L 1251.001591 194.177841 
" clip-path="url(#p6d72273402)" style="fill: none; stroke: #4c72b0; stroke-width: 1.5; stroke-linecap: round"/>
    <g clip-path="url(#p6d72273402)">
     <use xlink:href="#m7a61aa504e" x="900.152258" y="262.209594" style="fill: #4c72b0; stroke: #4c72b0"/>
     <use xlink:href="#m7a61aa504e" x="1044.494512" y="229.572739" style="fill: #4c72b0; stroke: #4c72b0"/>
     <use xlink:href="#m7a61aa504e" x="1188.836766" y="201.992299" style="fill: #4c72b0; stroke: #4c72b0"/>
     <use xlink:href="#m7a61aa504e" x="1251.001591" y="194.177841" style="fill: #4c72b0; stroke: #4c72b0"/>
    </g>
   </g>
   <g id="line2d_44">
    <path d="M 900.152258 232.330783 
L 1044.494512 173.49251 
L 1188.836766 146.831418 
L 1251.001591 132.12185 
" clip-path="url(#p6d72273402)" style="fill: none; stroke: #dd8452; stroke-width: 1.5; stroke-linecap: round"/>
    <g clip-path="url(#p6d72273402)">
     <use xlink:href="#m6a9f582461" x="900.152258" y="232.330783" style="fill: #dd8452; stroke: #dd8452"/>
     <use xlink:href="#m6a9f582461" x="1044.494512" y="173.49251" style="fill: #dd8452; stroke: #dd8452"/>
     <use xlink:href="#m6a9f582461" x="1188.836766" y="146.831418" style="fill: #dd8452; stroke: #dd8452"/>
     <use xlink:href="#m6a9f582461" x="1251.001591" y="132.12185" style="fill: #dd8452; stroke: #dd8452"/>
    </g>
   </g>
   <g id="line2d_45">
    <path d="M 900.152258 286.112642 
L 1044.494512 199.234255 
L 1188.836766 168.436096 
L 1251.001591 162.460334 
" clip-path="url(#p6d72273402)" style="fill: none; stroke: #55a868; stroke-width: 1.5; stroke-linecap: round"/>
    <g clip-path="url(#p6d72273402)">
     <use xlink:href="#m10100e7e84" x="900.152258" y="286.112642" style="fill: #55a868; stroke: #55a868"/>
     <use xlink:href="#m10100e7e84" x="1044.494512" y="199.234255" style="fill: #55a868; stroke: #55a868"/>
     <use xlink:href="#m10100e7e84" x="1188.836766" y="168.436096" style="fill: #55a868; stroke: #55a868"/>
     <use xlink:href="#m10100e7e84" x="1251.001591" y="162.460334" style="fill: #55a868; stroke: #55a868"/>
    </g>
   </g>
   <g id="patch_13">
    <path d="M 882.609792 298.457187 
L 882.609792 26.877187 
" style="fill: none; stroke: #cccccc; stroke-width: 1.25; stroke-linejoin: miter; stroke-linecap: square"/>
   </g>
   <g id="patch_14">
    <path d="M 1268.544057 298.457187 
L 1268.544057 26.877187 
" style="fill: none; stroke: #cccccc; stroke-width: 1.25; stroke-linejoin: miter; stroke-linecap: square"/>
   </g>
   <g id="patch_15">
    <path d="M 882.609792 298.457187 
L 1268.544057 298.457187 
" style="fill: none; stroke: #cccccc; stroke-width: 1.25; stroke-linejoin: miter; stroke-linecap: square"/>
   </g>
   <g id="patch_16">
    <path d="M 882.609792 26.877187 
L 1268.544057 26.877187 
" style="fill: none; stroke: #cccccc; stroke-width: 1.25; stroke-linejoin: miter; stroke-linecap: square"/>
   </g>
   <g id="text_25">
    <!-- B_insu -->
    <g style="fill: #262626" transform="translate(1046.305831 20.877187) scale(0.18 -0.18)">
     <defs>
      <path id="DejaVuSans-75" d="M 544 1381 
L 544 3500 
L 1119 3500 
L 1119 1403 
Q 1119 906 1312 657 
Q 1506 409 1894 409 
Q 2359 409 2629 706 
Q 2900 1003 2900 1516 
L 2900 3500 
L 3475 3500 
L 3475 0 
L 2900 0 
L 2900 538 
Q 2691 219 2414 64 
Q 2138 -91 1772 -91 
Q 1169 -91 856 284 
Q 544 659 544 1381 
z
M 1991 3584 
L 1991 3584 
z
" transform="scale(0.015625)"/>
     </defs>
     <use xlink:href="#DejaVuSans-42"/>
     <use xlink:href="#DejaVuSans-5f" transform="translate(68.603516 0)"/>
     <use xlink:href="#DejaVuSans-69" transform="translate(118.603516 0)"/>
     <use xlink:href="#DejaVuSans-6e" transform="translate(146.386719 0)"/>
     <use xlink:href="#DejaVuSans-73" transform="translate(209.765625 0)"/>
     <use xlink:href="#DejaVuSans-75" transform="translate(261.865234 0)"/>
    </g>
   </g>
  </g>
  <g id="legend_1">
   <g id="patch_17">
    <path d="M 480.3725 371.117187 
L 803.655 371.117187 
Q 806.855 371.117187 806.855 367.917187 
L 806.855 346.032187 
Q 806.855 342.832187 803.655 342.832187 
L 480.3725 342.832187 
Q 477.1725 342.832187 477.1725 346.032187 
L 477.1725 367.917187 
Q 477.1725 371.117187 480.3725 371.117187 
z
" style="fill: #ffffff; opacity: 0.8; stroke: #cccccc; stroke-linejoin: miter"/>
   </g>
   <g id="line2d_46">
    <path d="M 483.5725 355.789687 
L 499.5725 355.789687 
L 515.5725 355.789687 
" style="fill: none; stroke: #4c72b0; stroke-width: 1.5; stroke-linecap: round"/>
    <g>
     <use xlink:href="#m7a61aa504e" x="499.5725" y="355.789687" style="fill: #4c72b0; stroke: #4c72b0"/>
    </g>
   </g>
   <g id="text_26">
    <!-- LG -->
    <g style="fill: #262626" transform="translate(528.3725 361.389687) scale(0.16 -0.16)">
     <defs>
      <path id="DejaVuSans-4c" d="M 628 4666 
L 1259 4666 
L 1259 531 
L 3531 531 
L 3531 0 
L 628 0 
L 628 4666 
z
" transform="scale(0.015625)"/>
      <path id="DejaVuSans-47" d="M 3809 666 
L 3809 1919 
L 2778 1919 
L 2778 2438 
L 4434 2438 
L 4434 434 
Q 4069 175 3628 42 
Q 3188 -91 2688 -91 
Q 1594 -91 976 548 
Q 359 1188 359 2328 
Q 359 3472 976 4111 
Q 1594 4750 2688 4750 
Q 3144 4750 3555 4637 
Q 3966 4525 4313 4306 
L 4313 3634 
Q 3963 3931 3569 4081 
Q 3175 4231 2741 4231 
Q 1884 4231 1454 3753 
Q 1025 3275 1025 2328 
Q 1025 1384 1454 906 
Q 1884 428 2741 428 
Q 3075 428 3337 486 
Q 3600 544 3809 666 
z
" transform="scale(0.015625)"/>
     </defs>
     <use xlink:href="#DejaVuSans-4c"/>
     <use xlink:href="#DejaVuSans-47" transform="translate(55.712891 0)"/>
    </g>
   </g>
   <g id="line2d_47">
    <path d="M 581.685 355.789687 
L 597.685 355.789687 
L 613.685 355.789687 
" style="fill: none; stroke: #dd8452; stroke-width: 1.5; stroke-linecap: round"/>
    <g>
     <use xlink:href="#m6a9f582461" x="597.685" y="355.789687" style="fill: #dd8452; stroke: #dd8452"/>
    </g>
   </g>
   <g id="text_27">
    <!-- SLGBN -->
    <g style="fill: #262626" transform="translate(626.485 361.389687) scale(0.16 -0.16)">
     <defs>
      <path id="DejaVuSans-53" d="M 3425 4513 
L 3425 3897 
Q 3066 4069 2747 4153 
Q 2428 4238 2131 4238 
Q 1616 4238 1336 4038 
Q 1056 3838 1056 3469 
Q 1056 3159 1242 3001 
Q 1428 2844 1947 2747 
L 2328 2669 
Q 3034 2534 3370 2195 
Q 3706 1856 3706 1288 
Q 3706 609 3251 259 
Q 2797 -91 1919 -91 
Q 1588 -91 1214 -16 
Q 841 59 441 206 
L 441 856 
Q 825 641 1194 531 
Q 1563 422 1919 422 
Q 2459 422 2753 634 
Q 3047 847 3047 1241 
Q 3047 1584 2836 1778 
Q 2625 1972 2144 2069 
L 1759 2144 
Q 1053 2284 737 2584 
Q 422 2884 422 3419 
Q 422 4038 858 4394 
Q 1294 4750 2059 4750 
Q 2388 4750 2728 4690 
Q 3069 4631 3425 4513 
z
" transform="scale(0.015625)"/>
      <path id="DejaVuSans-4e" d="M 628 4666 
L 1478 4666 
L 3547 763 
L 3547 4666 
L 4159 4666 
L 4159 0 
L 3309 0 
L 1241 3903 
L 1241 0 
L 628 0 
L 628 4666 
z
" transform="scale(0.015625)"/>
     </defs>
     <use xlink:href="#DejaVuSans-53"/>
     <use xlink:href="#DejaVuSans-4c" transform="translate(63.476562 0)"/>
     <use xlink:href="#DejaVuSans-47" transform="translate(119.189453 0)"/>
     <use xlink:href="#DejaVuSans-42" transform="translate(196.679688 0)"/>
     <use xlink:href="#DejaVuSans-4e" transform="translate(265.283203 0)"/>
    </g>
   </g>
   <g id="line2d_48">
    <path d="M 712.9025 355.789687 
L 728.9025 355.789687 
L 744.9025 355.789687 
" style="fill: none; stroke: #55a868; stroke-width: 1.5; stroke-linecap: round"/>
    <g>
     <use xlink:href="#m10100e7e84" x="728.9025" y="355.789687" style="fill: #55a868; stroke: #55a868"/>
    </g>
   </g>
   <g id="text_28">
    <!-- SPBN -->
    <g style="fill: #262626" transform="translate(757.7025 361.389687) scale(0.16 -0.16)">
     <defs>
      <path id="DejaVuSans-50" d="M 1259 4147 
L 1259 2394 
L 2053 2394 
Q 2494 2394 2734 2622 
Q 2975 2850 2975 3272 
Q 2975 3691 2734 3919 
Q 2494 4147 2053 4147 
L 1259 4147 
z
M 628 4666 
L 2053 4666 
Q 2838 4666 3239 4311 
Q 3641 3956 3641 3272 
Q 3641 2581 3239 2228 
Q 2838 1875 2053 1875 
L 1259 1875 
L 1259 0 
L 628 0 
L 628 4666 
z
" transform="scale(0.015625)"/>
     </defs>
     <use xlink:href="#DejaVuSans-53"/>
     <use xlink:href="#DejaVuSans-50" transform="translate(63.476562 0)"/>
     <use xlink:href="#DejaVuSans-42" transform="translate(123.779297 0)"/>
     <use xlink:href="#DejaVuSans-4e" transform="translate(192.382812 0)"/>
    </g>
   </g>
  </g>
 </g>
 <defs>
  <clipPath id="pdad3734660">
   <rect x="67.801875" y="26.877187" width="385.934266" height="271.58"/>
  </clipPath>
  <clipPath id="pb129a3346e">
   <rect x="475.205833" y="26.877187" width="385.934266" height="271.58"/>
  </clipPath>
  <clipPath id="p6d72273402">
   <rect x="882.609792" y="26.877187" width="385.934266" height="271.58"/>
  </clipPath>
 </defs>
</svg>
